PathFileType	4	(X/Y/Z)	E:\Studenten\Marcel_BSc\Hannes_22_01_2025\22-01-2025\static_01.trc
DataRate	CameraRate	NumFrames	NumMarkers	Units	OrigDataRate	OrigDataStartFrame	OrigNumFrames
200.0	200.0	4	59	mm	200.0	311	497	
Frame#	Time	FHD			LBHD			RBHD			RBAR			LBAR			RASI			RSACR			LSACR			LASI			USACR			C7			CLAV			T10			RSHO			LSHO			LTHI1			LTHI3			LTHI2			LLFC			LMFC			LTIB1			LTIB2			LTIB3			LMMAL			LLMAL			LHEE			LMT1			LMT5			LMT3			RTHI1			RTHI2			RTHI3			RLFC			RMFC			RTIB1			RTIB3			RTIB2			RLMAL			RMMAL			RHEE			RMT5			RMT1			RMT3			LMEP			LLEP			LDUPA			LMUPA			LUUPA			LUL			LRAD			LRFIN			RUL			RRAD			RUFIN			RMEP			RLEP			RMUPA			RDUPA			RUUPA			
		X1	Y1	Z1	X2	Y2	Z2	X3	Y3	Z3	X4	Y4	Z4	X5	Y5	Z5	X6	Y6	Z6	X7	Y7	Z7	X8	Y8	Z8	X9	Y9	Z9	X10	Y10	Z10	X11	Y11	Z11	X12	Y12	Z12	X13	Y13	Z13	X14	Y14	Z14	X15	Y15	Z15	X16	Y16	Z16	X17	Y17	Z17	X18	Y18	Z18	X19	Y19	Z19	X20	Y20	Z20	X21	Y21	Z21	X22	Y22	Z22	X23	Y23	Z23	X24	Y24	Z24	X25	Y25	Z25	X26	Y26	Z26	X27	Y27	Z27	X28	Y28	Z28	X29	Y29	Z29	X30	Y30	Z30	X31	Y31	Z31	X32	Y32	Z32	X33	Y33	Z33	X34	Y34	Z34	X35	Y35	Z35	X36	Y36	Z36	X37	Y37	Z37	X38	Y38	Z38	X39	Y39	Z39	X40	Y40	Z40	X41	Y41	Z41	X42	Y42	Z42	X43	Y43	Z43	X44	Y44	Z44	X45	Y45	Z45	X46	Y46	Z46	X47	Y47	Z47	X48	Y48	Z48	X49	Y49	Z49	X50	Y50	Z50	X51	Y51	Z51	X52	Y52	Z52	X53	Y53	Z53	X54	Y54	Z54	X55	Y55	Z55	X56	Y56	Z56	X57	Y57	Z57	X58	Y58	Z58	X59	Y59	Z59	
311	1.55	64.659256	1709.356	-1221.5103	149.60397	1680.3781	-1120.871	161.55835	1675.5326	-1315.1648	-530.19745	25.808836	-2111.5068	-499.42862	36.274132	112.27556	110.01593	988.22345	-1329.5995	302.79987	1050.1519	-1256.0959	303.6535	1055.2457	-1148.641	116.7525	995.21741	-1060.697	304.13742	1074.4524	-1201.6365	294.08743	1170.8248	-1202.1594	123.63669	1450.3795	-1207.5078	293.83456	1493.2528	-1207.7917	273.10229	1484.6344	-1367.3834	272.1568	1492.0116	-1047.11	212.85475	792.23572	-982.79095	183.94057	732.02393	-973.24133	233.95699	728.99823	-982.16852	223.29707	504.21494	-998.52423	206.483	464.96347	-1106.428	319.60815	278.03311	-966.65576	269.26978	267.84842	-961.63501	306.04327	214.10876	-968.35486	277.46008	86.256157	-1054.3602	309.65628	80.139061	-965.96735	354.48721	22.03887	-1015.2867	142.83083	40.004189	-996.71771	185.69182	26.599924	-915.62793	149.05835	30.10004	-948.5387	222.22037	782.08765	-1410.1411	190.39183	724.31189	-1417.2776	239.8533	717.83881	-1408.7845	217.99187	494.72159	-1384.0084	195.96512	477.4545	-1277.3988	294.85791	274.36771	-1422.8044	244.76967	277.42413	-1414.2241	268.54181	215.70694	-1413.9803	295.10712	79.969055	-1409.9056	257.50443	83.340767	-1322.6874	343.86966	30.188887	-1366.338	184.10789	27.36586	-1460.939	124.54692	35.998264	-1389.6948	135.74239	28.367268	-1438.1354	216.48131	1357.8279	-770.11237	279.56839	1448.3153	-762.91095	288.12122	1441.7729	-829.82336	253.66602	1483.5114	-888.32025	290.95016	1450.4082	-891.01599	200.03049	1481.2015	-520.40979	157.87929	1502.135	-534.75287	115.85856	1492.8049	-434.08026	214.32729	1467.6373	-1902.5966	170.89867	1492.0875	-1884.2018	154.04277	1487.0485	-1996.9552	229.16931	1352.0231	-1638.8983	294.22018	1440.1956	-1654.4259	309.04999	1426.3379	-1549.1066	288.7558	1451.3204	-1586.7368	289.42401	1471.6903	-1510.2505
312	1.555	64.642181	1709.3334	-1221.556	149.55232	1680.3849	-1120.9137	161.5201	1675.5295	-1315.197	-530.25085	25.818678	-2111.4265	-499.42566	36.270081	112.27179	110.01746	988.22095	-1329.6024	302.79666	1050.1606	-1256.1055	303.65439	1055.2479	-1148.6462	116.74216	995.20538	-1060.7148	304.15033	1074.4517	-1201.6445	294.09317	1170.8344	-1202.1709	123.61749	1450.3811	-1207.5343	293.81488	1493.2596	-1207.8184	273.07196	1484.644	-1367.3971	272.12039	1492.0321	-1047.1519	212.83922	792.2569	-982.79413	183.92444	732.01727	-973.24194	233.95677	728.99182	-982.17328	223.27104	504.23175	-998.5235	206.46494	464.96198	-1106.438	319.6076	278.02802	-966.66254	269.25696	267.8378	-961.63171	306.02966	214.10898	-968.34821	277.4581	86.256454	-1054.3564	309.66104	80.145561	-965.9751	354.48325	22.055403	-1015.2833	142.8284	40.009857	-996.72363	185.69785	26.596897	-915.63934	149.06046	30.09782	-948.55188	222.21953	782.09686	-1410.1497	190.38118	724.3385	-1417.2802	239.67656	718.21228	-1408.6355	217.99823	494.72275	-1384.0226	195.95763	477.45776	-1277.3922	294.8624	274.38638	-1422.798	244.69472	277.63693	-1414.0131	268.53906	215.70842	-1413.9806	295.11819	79.963402	-1409.9116	257.49966	83.336327	-1322.6866	343.87671	30.207355	-1366.3284	184.11078	27.374577	-1460.9343	124.54373	36.008591	-1389.7001	135.74756	28.370508	-1438.137	216.43111	1357.8403	-770.12671	279.52567	1448.3718	-762.92487	288.10742	1441.7836	-829.84802	253.6562	1483.5349	-888.33862	290.92175	1450.4325	-891.02704	199.99104	1481.2462	-520.43817	157.84091	1502.1854	-534.77698	115.68559	1492.8802	-434.15332	214.28265	1467.631	-1902.6279	170.85298	1492.056	-1884.2228	153.9953	1487.0079	-1996.9799	229.15823	1352.0385	-1638.9186	294.18643	1440.1934	-1654.4369	309.01691	1426.3375	-1549.1322	288.70148	1451.3297	-1586.7607	289.38214	1471.7117	-1510.2733
313	1.56	64.557945	1709.3568	-1221.5638	149.52362	1680.3854	-1120.9412	161.49802	1675.5256	-1315.2186	-530.16241	25.870785	-2111.6055	-499.42474	36.268776	112.27235	110.01895	988.21991	-1329.6039	302.80243	1050.1547	-1256.1184	303.6615	1055.2521	-1148.6628	116.76797	995.21857	-1060.7184	304.14868	1074.4535	-1201.6552	294.09525	1170.8423	-1202.1827	123.60345	1450.3827	-1207.5665	293.80353	1493.2664	-1207.8383	273.06113	1484.6559	-1367.4227	272.09488	1492.0344	-1047.1937	212.84471	792.27332	-982.80164	183.91299	732.03857	-973.25287	233.94496	728.99744	-982.17682	223.27344	504.22348	-998.52808	206.46428	464.96042	-1106.4368	319.60428	278.05377	-966.64325	269.25275	267.82452	-961.63568	306.01846	214.12433	-968.36603	277.45093	86.256371	-1054.359	309.66312	80.137413	-965.98041	354.47583	22.059423	-1015.2988	142.8351	39.997795	-996.72327	185.7023	26.583162	-915.64801	149.07213	30.093103	-948.56232	222.22713	782.10193	-1410.1497	190.3992	724.31982	-1417.2864	239.82285	717.89539	-1408.7631	218.00218	494.71942	-1384.0283	195.96483	477.46121	-1277.3969	294.85855	274.35739	-1422.8083	244.54437	277.39743	-1413.5553	268.53387	215.69868	-1413.989	295.10748	79.98056	-1409.902	257.49503	83.336845	-1322.6842	343.8678	30.216915	-1366.3611	184.11113	27.373394	-1460.9329	124.55	36.000889	-1389.6917	135.75343	28.364025	-1438.1379	216.41406	1357.8827	-770.13971	279.48819	1448.4086	-762.9455	288.08191	1441.8308	-829.85529	253.62483	1483.5741	-888.36816	290.90384	1450.454	-891.04022	199.96416	1481.3146	-520.45966	157.78452	1502.2307	-534.79596	115.77521	1492.8773	-434.14136	214.23347	1467.6035	-1902.6615	170.79541	1492.0217	-1884.2478	153.94118	1486.9771	-1996.9952	229.14697	1352.027	-1638.9149	294.15085	1440.2064	-1654.467	308.99335	1426.3424	-1549.1635	288.68506	1451.33	-1586.7919	289.36731	1471.7031	-1510.3063
314	1.565	64.438591	1709.434	-1221.5396	149.50345	1680.3933	-1120.9661	161.46964	1675.5188	-1315.2469	-530.29431	25.80468	-2111.2905	-499.41647	36.268776	112.2662	110.02312	988.22797	-1329.6176	302.80676	1050.1418	-1256.1357	303.6597	1055.252	-1148.6681	116.76292	995.21747	-1060.7373	304.15939	1074.4541	-1201.675	294.10742	1170.8314	-1202.1869	123.58453	1450.3816	-1207.5865	293.78152	1493.2704	-1207.8735	273.02902	1484.6605	-1367.4452	272.06778	1492.0488	-1047.2289	212.851	792.25549	-982.80975	183.90967	732.03265	-973.26227	233.94936	728.99976	-982.17761	223.25014	504.22913	-998.52264	206.45525	464.96201	-1106.4475	319.60684	278.04825	-966.65405	269.24368	267.83679	-961.62189	306.04053	214.10783	-968.35992	277.46249	86.253441	-1054.3602	309.66174	80.132355	-965.99896	354.4823	22.056253	-1015.2944	142.82372	40.011078	-996.72839	185.68886	26.607195	-915.6347	149.06416	30.09203	-948.55786	222.24092	782.09973	-1410.153	190.40315	724.31842	-1417.2936	239.82503	717.89398	-1408.7625	218.004	494.71429	-1384.0232	195.96741	477.46182	-1277.412	294.85098	274.37973	-1422.811	244.556	277.3797	-1413.561	268.52838	215.71649	-1413.9812	295.10086	79.978828	-1409.9148	257.50143	83.339714	-1322.6842	343.85867	30.204748	-1366.3439	184.1116	27.382782	-1460.9446	124.54569	36.004562	-1389.6956	135.75146	28.368053	-1438.1442	216.37801	1357.9027	-770.15594	279.33478	1448.2623	-762.90289	288.00537	1441.6936	-829.81238	253.61771	1483.6016	-888.3999	290.86871	1450.4764	-891.06403	199.8979	1481.4026	-520.48578	157.74048	1502.2626	-534.8316	115.58405	1492.9686	-434.2016	214.21068	1467.5688	-1902.6991	170.72585	1492.0085	-1884.2711	153.89334	1486.9309	-1997.0173	229.13449	1352.0256	-1638.941	294.11996	1440.2089	-1654.4768	308.96103	1426.354	-1549.1906	288.65781	1451.3365	-1586.8048	289.33514	1471.7159	-1510.3228
